<svg width="24" height="22" viewBox="0 0 24 22" fill="none" xmlns="http://www.w3.org/2000/svg">
<path opacity="0.3" d="M10.8866 18.6603L10.8859 18.6596C8.30104 16.3157 6.19578 14.4033 4.73088 12.6111C3.27148 10.8256 2.5 9.22062 2.5 7.5C2.5 4.68674 4.69555 2.5 7.5 2.5C9.08885 2.5 10.6221 3.24223 11.6206 4.40564L12 4.84771L12.3794 4.40564C13.3779 3.24223 14.9112 2.5 16.5 2.5C19.3045 2.5 21.5 4.68674 21.5 7.5C21.5 9.22062 20.7285 10.8256 19.2691 12.6111C17.8042 14.4033 15.699 16.3157 13.1141 18.6596L13.1134 18.6603L12 19.6738L10.8866 18.6603ZM10.2141 19.4004L11.5 20.571V21.5H0.5V0.5H23.5V21.5H12.5V20.571L13.7859 19.4004C13.7859 19.4004 13.7859 19.4003 13.786 19.4003C16.3511 17.0743 18.5208 15.1067 20.0434 13.2439C21.5715 11.3744 22.5 9.54938 22.5 7.5C22.5 4.13326 19.8555 1.5 16.5 1.5C14.8012 1.5 13.1705 2.20826 12 3.35013C10.8295 2.20826 9.19877 1.5 7.5 1.5C4.14445 1.5 1.5 4.13326 1.5 7.5C1.5 9.54938 2.42852 11.3744 3.95662 13.2439C5.4792 15.1067 7.6489 17.0743 10.214 19.4003C10.2141 19.4003 10.2141 19.4004 10.2141 19.4004Z" stroke="black"/>
</svg>
