<svg width="18" height="18" viewBox="0 0 18 18" fill="none" xmlns="http://www.w3.org/2000/svg">
<path d="M2 0H16C16.5304 0 17.0391 0.210714 17.4142 0.585786C17.7893 0.960859 18 1.46957 18 2V16C18 16.5304 17.7893 17.0391 17.4142 17.4142C17.0391 17.7893 16.5304 18 16 18H2C1.46957 18 0.960859 17.7893 0.585786 17.4142C0.210714 17.0391 0 16.5304 0 16V2C0 1.46957 0.210714 0.960859 0.585786 0.585786C0.960859 0.210714 1.46957 0 2 0ZM9 14L9.72 13.34C12.3 11 14 9.46 14 7.57C14 6.03 12.79 4.82 11.25 4.82C10.38 4.82 9.55 5.23 9 5.87C8.72135 5.54487 8.37647 5.283 7.98844 5.10192C7.60041 4.92084 7.17818 4.82473 6.75 4.82C5.21 4.82 4 6.03 4 7.57C4 9.46 5.7 11 8.28 13.34L9 14Z" fill="black"/>
</svg>
